<svg xmlns="http://www.w3.org/2000/svg" xmlns:xlink="http://www.w3.org/1999/xlink" version="1.1" x="0px" y="0px" viewBox="0 0 95 118.75" style="enable-background:new 0 0 95 95;" xml:space="preserve"><style type="text/css">
	.st0{fill-rule:evenodd;clip-rule:evenodd;}
</style><path class="st0" d="M90.91,68.04c0.83,0,1.49,0.66,1.49,1.48c0,0.82-0.67,1.48-1.49,1.48H32.05c-2.66,0-5.09-1.09-6.83-2.84  c-1.76-1.75-2.84-4.17-2.84-6.83V10.41c0-1.84-0.75-3.52-1.97-4.73c-1.22-1.21-2.89-1.97-4.73-1.97H4.09  c-0.82,0-1.48-0.66-1.48-1.48c0-0.82,0.67-1.48,1.48-1.48h11.58c2.66,0,5.09,1.09,6.83,2.84c1.76,1.75,2.84,4.17,2.84,6.83v6.54  h56.85v28.27L25.34,58.15v3.19c0,1.84,0.75,3.52,1.97,4.73c1.22,1.21,2.89,1.97,4.73,1.97H90.91L90.91,68.04z M77.98,75.74  c5.11,0,9.26,4.15,9.26,9.26c0,5.11-4.14,9.26-9.26,9.26c-5.11,0-9.26-4.15-9.26-9.26C68.73,79.89,72.87,75.74,77.98,75.74  L77.98,75.74z M40.65,75.74c5.11,0,9.26,4.15,9.26,9.26c0,5.11-4.14,9.26-9.26,9.26c-5.11,0-9.26-4.15-9.26-9.26  C31.39,79.89,35.54,75.74,40.65,75.74z"/><text x="0" y="110" fill="#000000" font-size="5px" font-weight="bold" font-family="'Helvetica Neue', Helvetica, Arial-Unicode, Arial, Sans-serif">Created by Danang endar</text><text x="0" y="115" fill="#000000" font-size="5px" font-weight="bold" font-family="'Helvetica Neue', Helvetica, Arial-Unicode, Arial, Sans-serif">from the Noun Project</text></svg>